<svg xmlns="http://www.w3.org/2000/svg" width="800" height="600" data-software-used-string="@tscircuit/core@0.0.1697"><style></style><defs class="copper-pour-trace-mask-defs"><mask id="copper-pour-trace-mask-top" maskUnits="userSpaceOnUse" x="0" y="0" width="800" height="600"><rect x="0" y="0" width="800" height="600" fill="#fff"/><path d="M 767.5 517.5 L 32.5 517.5 L 32.5 82.50000000000003 L 767.5 82.50000000000003 L 767.5 517.5 Z M 128.125 394.375 L 163.125 394.375 L 163.125 390 L 225 390 L 227.92635 389.711775 L 230.74025 388.8582 L 233.33355 387.47204999999997 L 235.6066 385.6066 L 306.21320000000003 315 L 500 315 L 502.92635 314.711775 L 505.74025 313.8582 L 508.33355 312.47205 L 510.6066 310.6066 L 581.2132 240 L 636.875 240 L 636.875 244.375 L 671.875 244.375 L 671.875 205.625 L 636.875 205.625 L 636.875 210 L 575 210 L 572.07365 210.288225 L 569.2597499999999 211.1418 L 566.6664499999999 212.52795 L 564.3934 214.39339999999999 L 493.78679999999997 285 L 300 285 L 297.07365 285.288225 L 294.25975 286.1418 L 291.66645 287.52795 L 289.3934 289.3934 L 218.7868 360 L 163.125 360 L 163.125 355.625 L 128.125 355.625 L 128.125 394.375 Z M 678.125 244.375 L 713.125 244.375 L 713.125 205.625 L 678.125 205.625 L 678.125 244.375 Z M 86.875 394.375 L 121.875 394.375 L 121.875 355.625 L 86.875 355.625 L 86.875 394.375 Z" fill-rule="evenodd" fill="#000"/></mask></defs><rect class="boundary" x="0" y="0" fill="#000" width="800" height="600" data-type="pcb_background" data-pcb-layer="global"/><rect class="pcb-boundary" fill="none" stroke="#fff" stroke-width="0.3" x="25" y="75" width="750" height="450" data-type="pcb_boundary" data-pcb-layer="global"/><path class="pcb-board" d="M 25 525 L 775 525 L 775 75 L 25 75 Z" fill="none" stroke="rgba(255, 255, 255, 0.5)" stroke-width="2.5" data-type="pcb_board" data-pcb-layer="board"/><path class="pcb-copper-pour pcb-copper-pour-brep" d="M 32.5 517.5 L 32.5 82.50000000000003 L 767.5 82.50000000000003 L 767.5 517.5 L 32.5 517.5 Z" fill-rule="evenodd" fill="rgb(77, 127, 196)" fill-opacity="0.5" data-type="pcb_copper_pour" data-pcb-layer="bottom"/><rect class="pcb-pad" fill="rgb(200, 52, 52)" x="94.375" y="363.125" width="20" height="23.75" data-type="pcb_smtpad" data-pcb-layer="top" data-pad-name="R1.pin1"/><rect class="pcb-pad" fill="rgb(200, 52, 52)" x="135.62499999999997" y="363.125" width="20" height="23.75" data-type="pcb_smtpad" data-pcb-layer="top" data-pad-name="R1.pin2"/><rect class="pcb-pad" fill="rgb(200, 52, 52)" x="644.375" y="213.125" width="20" height="23.75" data-type="pcb_smtpad" data-pcb-layer="top" data-pad-name="R2.pin1"/><rect class="pcb-pad" fill="rgb(200, 52, 52)" x="685.625" y="213.125" width="20" height="23.75" data-type="pcb_smtpad" data-pcb-layer="top" data-pad-name="R2.pin2"/><g class="pcb-trace-mask-group" mask="url(#copper-pour-trace-mask-top)"><path class="pcb-trace" stroke="rgb(200, 52, 52)" fill="none" stroke-width="15" stroke-linecap="round" stroke-linejoin="round" shape-rendering="crispEdges" data-type="pcb_trace" data-pcb-layer="top" d="M 145.62499999999997 375 L 225 375 M 225 375 L 300 300 M 300 300 L 500 300 M 500 300 L 575 225 M 575 225 L 654.375 225"/></g><path class="pcb-copper-pour pcb-copper-pour-brep" d="M 767.5 517.5 L 32.5 517.5 L 32.5 82.50000000000003 L 767.5 82.50000000000003 L 767.5 517.5 Z M 128.125 394.375 L 163.125 394.375 L 163.125 390 L 225 390 L 227.92635 389.711775 L 230.74025 388.8582 L 233.33355 387.47204999999997 L 235.6066 385.6066 L 306.21320000000003 315 L 500 315 L 502.92635 314.711775 L 505.74025 313.8582 L 508.33355 312.47205 L 510.6066 310.6066 L 581.2132 240 L 636.875 240 L 636.875 244.375 L 671.875 244.375 L 671.875 205.625 L 636.875 205.625 L 636.875 210 L 575 210 L 572.07365 210.288225 L 569.2597499999999 211.1418 L 566.6664499999999 212.52795 L 564.3934 214.39339999999999 L 493.78679999999997 285 L 300 285 L 297.07365 285.288225 L 294.25975 286.1418 L 291.66645 287.52795 L 289.3934 289.3934 L 218.7868 360 L 163.125 360 L 163.125 355.625 L 128.125 355.625 L 128.125 394.375 Z M 678.125 244.375 L 713.125 244.375 L 713.125 205.625 L 678.125 205.625 L 678.125 244.375 Z M 86.875 394.375 L 121.875 394.375 L 121.875 355.625 L 86.875 355.625 L 86.875 394.375 Z" fill-rule="evenodd" fill="rgb(200, 52, 52)" fill-opacity="0.5" data-type="pcb_copper_pour" data-pcb-layer="top"/><path class="pcb-silkscreen pcb-silkscreen-top" d="M 119.06854999999996 361.9375 L 130.93145000000004 361.9375" fill="none" stroke="#f2eda1" stroke-width="3" stroke-linecap="round" stroke-linejoin="round" data-pcb-component-id="pcb_component_0" data-pcb-silkscreen-path-id="pcb_silkscreen_path_0" data-type="pcb_silkscreen_path" data-pcb-layer="top"/><path class="pcb-silkscreen pcb-silkscreen-top" d="M 119.06854999999996 388.0625 L 130.93145000000004 388.0625" fill="none" stroke="#f2eda1" stroke-width="3" stroke-linecap="round" stroke-linejoin="round" data-pcb-component-id="pcb_component_0" data-pcb-silkscreen-path-id="pcb_silkscreen_path_1" data-type="pcb_silkscreen_path" data-pcb-layer="top"/><text x="0" y="0" dx="0" dy="0" fill="#f2eda1" font-family="Arial, sans-serif" font-size="10" text-anchor="middle" dominant-baseline="central" transform="matrix(1,0,0,1,125,340.625)" class="pcb-silkscreen-text pcb-silkscreen-top" data-pcb-silkscreen-text-id="pcb_silkscreen_text_0" stroke="none" data-type="pcb_silkscreen_text" data-pcb-layer="top">R1</text><path class="pcb-silkscreen pcb-silkscreen-top" d="M 669.06855 211.9375 L 680.93145 211.9375" fill="none" stroke="#f2eda1" stroke-width="3" stroke-linecap="round" stroke-linejoin="round" data-pcb-component-id="pcb_component_1" data-pcb-silkscreen-path-id="pcb_silkscreen_path_2" data-type="pcb_silkscreen_path" data-pcb-layer="top"/><path class="pcb-silkscreen pcb-silkscreen-top" d="M 669.06855 238.0625 L 680.93145 238.0625" fill="none" stroke="#f2eda1" stroke-width="3" stroke-linecap="round" stroke-linejoin="round" data-pcb-component-id="pcb_component_1" data-pcb-silkscreen-path-id="pcb_silkscreen_path_3" data-type="pcb_silkscreen_path" data-pcb-layer="top"/><text x="0" y="0" dx="0" dy="0" fill="#f2eda1" font-family="Arial, sans-serif" font-size="10" text-anchor="middle" dominant-baseline="central" transform="matrix(1,0,0,1,675,190.625)" class="pcb-silkscreen-text pcb-silkscreen-top" data-pcb-silkscreen-text-id="pcb_silkscreen_text_1" stroke="none" data-type="pcb_silkscreen_text" data-pcb-layer="top">R2</text><g data-type="pcb_via" data-pcb-layer="through"><circle class="pcb-hole-outer" fill="rgb(200, 52, 52)" cx="175.88029098842003" cy="402.5" r="7.5" data-type="pcb_via" data-pcb-layer="top"/><circle class="pcb-hole-inner" fill="#FF26E2" cx="175.88029098842003" cy="402.5" r="3.75" data-type="pcb_via" data-pcb-layer="drill"/></g><g data-type="pcb_via" data-pcb-layer="through"><circle class="pcb-hole-outer" fill="rgb(200, 52, 52)" cx="206.1355819768401" cy="402.5" r="7.5" data-type="pcb_via" data-pcb-layer="top"/><circle class="pcb-hole-inner" fill="#FF26E2" cx="206.1355819768401" cy="402.5" r="3.75" data-type="pcb_via" data-pcb-layer="drill"/></g><g data-type="pcb_via" data-pcb-layer="through"><circle class="pcb-hole-outer" fill="rgb(200, 52, 52)" cx="236.39087296526014" cy="402.5" r="7.5" data-type="pcb_via" data-pcb-layer="top"/><circle class="pcb-hole-inner" fill="#FF26E2" cx="236.39087296526014" cy="402.5" r="3.75" data-type="pcb_via" data-pcb-layer="drill"/></g><g data-type="pcb_via" data-pcb-layer="through"><circle class="pcb-hole-outer" fill="rgb(200, 52, 52)" cx="261.39087296526014" cy="377.5" r="7.5" data-type="pcb_via" data-pcb-layer="top"/><circle class="pcb-hole-inner" fill="#FF26E2" cx="261.39087296526014" cy="377.5" r="3.75" data-type="pcb_via" data-pcb-layer="drill"/></g><g data-type="pcb_via" data-pcb-layer="through"><circle class="pcb-hole-outer" fill="rgb(200, 52, 52)" cx="286.39087296526014" cy="352.5" r="7.5" data-type="pcb_via" data-pcb-layer="top"/><circle class="pcb-hole-inner" fill="#FF26E2" cx="286.39087296526014" cy="352.5" r="3.75" data-type="pcb_via" data-pcb-layer="drill"/></g><g data-type="pcb_via" data-pcb-layer="through"><circle class="pcb-hole-outer" fill="rgb(200, 52, 52)" cx="311.39087296526014" cy="327.5" r="7.5" data-type="pcb_via" data-pcb-layer="top"/><circle class="pcb-hole-inner" fill="#FF26E2" cx="311.39087296526014" cy="327.5" r="3.75" data-type="pcb_via" data-pcb-layer="drill"/></g><g data-type="pcb_via" data-pcb-layer="through"><circle class="pcb-hole-outer" fill="rgb(200, 52, 52)" cx="344.72420629859346" cy="327.5" r="7.5" data-type="pcb_via" data-pcb-layer="top"/><circle class="pcb-hole-inner" fill="#FF26E2" cx="344.72420629859346" cy="327.5" r="3.75" data-type="pcb_via" data-pcb-layer="drill"/></g><g data-type="pcb_via" data-pcb-layer="through"><circle class="pcb-hole-outer" fill="rgb(200, 52, 52)" cx="378.0575396319268" cy="327.5" r="7.5" data-type="pcb_via" data-pcb-layer="top"/><circle class="pcb-hole-inner" fill="#FF26E2" cx="378.0575396319268" cy="327.5" r="3.75" data-type="pcb_via" data-pcb-layer="drill"/></g><g data-type="pcb_via" data-pcb-layer="through"><circle class="pcb-hole-outer" fill="rgb(200, 52, 52)" cx="411.39087296526014" cy="327.5" r="7.5" data-type="pcb_via" data-pcb-layer="top"/><circle class="pcb-hole-inner" fill="#FF26E2" cx="411.39087296526014" cy="327.5" r="3.75" data-type="pcb_via" data-pcb-layer="drill"/></g><g data-type="pcb_via" data-pcb-layer="through"><circle class="pcb-hole-outer" fill="rgb(200, 52, 52)" cx="444.72420629859346" cy="327.5" r="7.5" data-type="pcb_via" data-pcb-layer="top"/><circle class="pcb-hole-inner" fill="#FF26E2" cx="444.72420629859346" cy="327.5" r="3.75" data-type="pcb_via" data-pcb-layer="drill"/></g><g data-type="pcb_via" data-pcb-layer="through"><circle class="pcb-hole-outer" fill="rgb(200, 52, 52)" cx="478.05753963192683" cy="327.5" r="7.5" data-type="pcb_via" data-pcb-layer="top"/><circle class="pcb-hole-inner" fill="#FF26E2" cx="478.05753963192683" cy="327.5" r="3.75" data-type="pcb_via" data-pcb-layer="drill"/></g><g data-type="pcb_via" data-pcb-layer="through"><circle class="pcb-hole-outer" fill="rgb(200, 52, 52)" cx="511.39087296526014" cy="327.5" r="7.5" data-type="pcb_via" data-pcb-layer="top"/><circle class="pcb-hole-inner" fill="#FF26E2" cx="511.39087296526014" cy="327.5" r="3.75" data-type="pcb_via" data-pcb-layer="drill"/></g><g data-type="pcb_via" data-pcb-layer="through"><circle class="pcb-hole-outer" fill="rgb(200, 52, 52)" cx="536.3908729652601" cy="302.5" r="7.5" data-type="pcb_via" data-pcb-layer="top"/><circle class="pcb-hole-inner" fill="#FF26E2" cx="536.3908729652601" cy="302.5" r="3.75" data-type="pcb_via" data-pcb-layer="drill"/></g><g data-type="pcb_via" data-pcb-layer="through"><circle class="pcb-hole-outer" fill="rgb(200, 52, 52)" cx="561.3908729652601" cy="277.5" r="7.5" data-type="pcb_via" data-pcb-layer="top"/><circle class="pcb-hole-inner" fill="#FF26E2" cx="561.3908729652601" cy="277.5" r="3.75" data-type="pcb_via" data-pcb-layer="drill"/></g><g data-type="pcb_via" data-pcb-layer="through"><circle class="pcb-hole-outer" fill="rgb(200, 52, 52)" cx="586.3908729652601" cy="252.5" r="7.5" data-type="pcb_via" data-pcb-layer="top"/><circle class="pcb-hole-inner" fill="#FF26E2" cx="586.3908729652601" cy="252.5" r="3.75" data-type="pcb_via" data-pcb-layer="drill"/></g><g data-type="pcb_via" data-pcb-layer="through"><circle class="pcb-hole-outer" fill="rgb(200, 52, 52)" cx="620.38293648263" cy="252.5" r="7.5" data-type="pcb_via" data-pcb-layer="top"/><circle class="pcb-hole-inner" fill="#FF26E2" cx="620.38293648263" cy="252.5" r="3.75" data-type="pcb_via" data-pcb-layer="drill"/></g><g data-type="pcb_via" data-pcb-layer="through"><circle class="pcb-hole-outer" fill="rgb(200, 52, 52)" cx="179.61706351736996" cy="347.5" r="7.5" data-type="pcb_via" data-pcb-layer="top"/><circle class="pcb-hole-inner" fill="#FF26E2" cx="179.61706351736996" cy="347.5" r="3.75" data-type="pcb_via" data-pcb-layer="drill"/></g><g data-type="pcb_via" data-pcb-layer="through"><circle class="pcb-hole-outer" fill="rgb(200, 52, 52)" cx="213.60912703473988" cy="347.5" r="7.5" data-type="pcb_via" data-pcb-layer="top"/><circle class="pcb-hole-inner" fill="#FF26E2" cx="213.60912703473988" cy="347.5" r="3.75" data-type="pcb_via" data-pcb-layer="drill"/></g><g data-type="pcb_via" data-pcb-layer="through"><circle class="pcb-hole-outer" fill="rgb(200, 52, 52)" cx="238.60912703473988" cy="322.5" r="7.5" data-type="pcb_via" data-pcb-layer="top"/><circle class="pcb-hole-inner" fill="#FF26E2" cx="238.60912703473988" cy="322.5" r="3.75" data-type="pcb_via" data-pcb-layer="drill"/></g><g data-type="pcb_via" data-pcb-layer="through"><circle class="pcb-hole-outer" fill="rgb(200, 52, 52)" cx="263.6091270347399" cy="297.5" r="7.5" data-type="pcb_via" data-pcb-layer="top"/><circle class="pcb-hole-inner" fill="#FF26E2" cx="263.6091270347399" cy="297.5" r="3.75" data-type="pcb_via" data-pcb-layer="drill"/></g><g data-type="pcb_via" data-pcb-layer="through"><circle class="pcb-hole-outer" fill="rgb(200, 52, 52)" cx="288.6091270347399" cy="272.5" r="7.5" data-type="pcb_via" data-pcb-layer="top"/><circle class="pcb-hole-inner" fill="#FF26E2" cx="288.6091270347399" cy="272.5" r="3.75" data-type="pcb_via" data-pcb-layer="drill"/></g><g data-type="pcb_via" data-pcb-layer="through"><circle class="pcb-hole-outer" fill="rgb(200, 52, 52)" cx="321.9424603680732" cy="272.5" r="7.5" data-type="pcb_via" data-pcb-layer="top"/><circle class="pcb-hole-inner" fill="#FF26E2" cx="321.9424603680732" cy="272.5" r="3.75" data-type="pcb_via" data-pcb-layer="drill"/></g><g data-type="pcb_via" data-pcb-layer="through"><circle class="pcb-hole-outer" fill="rgb(200, 52, 52)" cx="355.27579370140654" cy="272.5" r="7.5" data-type="pcb_via" data-pcb-layer="top"/><circle class="pcb-hole-inner" fill="#FF26E2" cx="355.27579370140654" cy="272.5" r="3.75" data-type="pcb_via" data-pcb-layer="drill"/></g><g data-type="pcb_via" data-pcb-layer="through"><circle class="pcb-hole-outer" fill="rgb(200, 52, 52)" cx="388.6091270347399" cy="272.5" r="7.5" data-type="pcb_via" data-pcb-layer="top"/><circle class="pcb-hole-inner" fill="#FF26E2" cx="388.6091270347399" cy="272.5" r="3.75" data-type="pcb_via" data-pcb-layer="drill"/></g><g data-type="pcb_via" data-pcb-layer="through"><circle class="pcb-hole-outer" fill="rgb(200, 52, 52)" cx="421.9424603680732" cy="272.5" r="7.5" data-type="pcb_via" data-pcb-layer="top"/><circle class="pcb-hole-inner" fill="#FF26E2" cx="421.9424603680732" cy="272.5" r="3.75" data-type="pcb_via" data-pcb-layer="drill"/></g><g data-type="pcb_via" data-pcb-layer="through"><circle class="pcb-hole-outer" fill="rgb(200, 52, 52)" cx="455.27579370140654" cy="272.5" r="7.5" data-type="pcb_via" data-pcb-layer="top"/><circle class="pcb-hole-inner" fill="#FF26E2" cx="455.27579370140654" cy="272.5" r="3.75" data-type="pcb_via" data-pcb-layer="drill"/></g><g data-type="pcb_via" data-pcb-layer="through"><circle class="pcb-hole-outer" fill="rgb(200, 52, 52)" cx="488.6091270347399" cy="272.5" r="7.5" data-type="pcb_via" data-pcb-layer="top"/><circle class="pcb-hole-inner" fill="#FF26E2" cx="488.6091270347399" cy="272.5" r="3.75" data-type="pcb_via" data-pcb-layer="drill"/></g><g data-type="pcb_via" data-pcb-layer="through"><circle class="pcb-hole-outer" fill="rgb(200, 52, 52)" cx="513.6091270347399" cy="247.5" r="7.5" data-type="pcb_via" data-pcb-layer="top"/><circle class="pcb-hole-inner" fill="#FF26E2" cx="513.6091270347399" cy="247.5" r="3.75" data-type="pcb_via" data-pcb-layer="drill"/></g><g data-type="pcb_via" data-pcb-layer="through"><circle class="pcb-hole-outer" fill="rgb(200, 52, 52)" cx="538.6091270347399" cy="222.5" r="7.5" data-type="pcb_via" data-pcb-layer="top"/><circle class="pcb-hole-inner" fill="#FF26E2" cx="538.6091270347399" cy="222.5" r="3.75" data-type="pcb_via" data-pcb-layer="drill"/></g><g data-type="pcb_via" data-pcb-layer="through"><circle class="pcb-hole-outer" fill="rgb(200, 52, 52)" cx="563.6091270347399" cy="197.5" r="7.5" data-type="pcb_via" data-pcb-layer="top"/><circle class="pcb-hole-inner" fill="#FF26E2" cx="563.6091270347399" cy="197.5" r="3.75" data-type="pcb_via" data-pcb-layer="drill"/></g><g data-type="pcb_via" data-pcb-layer="through"><circle class="pcb-hole-outer" fill="rgb(200, 52, 52)" cx="593.8644180231599" cy="197.5" r="7.5" data-type="pcb_via" data-pcb-layer="top"/><circle class="pcb-hole-inner" fill="#FF26E2" cx="593.8644180231599" cy="197.5" r="3.75" data-type="pcb_via" data-pcb-layer="drill"/></g><g data-type="pcb_via" data-pcb-layer="through"><circle class="pcb-hole-outer" fill="rgb(200, 52, 52)" cx="624.11970901158" cy="197.5" r="7.5" data-type="pcb_via" data-pcb-layer="top"/><circle class="pcb-hole-inner" fill="#FF26E2" cx="624.11970901158" cy="197.5" r="3.75" data-type="pcb_via" data-pcb-layer="drill"/></g><text x="400" y="107.5" fill="rgb(89, 148, 220)" font-family="Arial, sans-serif" font-size="11.25" text-anchor="middle" dominant-baseline="central" class="pcb-note-text" data-type="pcb_note_text" data-pcb-note-text-id="pcb_note_text_0" data-pcb-layer="overlay">GND via fence follows both edges and bends of a routed trace</text></svg>