<svg xmlns="http://www.w3.org/2000/svg" width="800" height="600" data-software-used-string="@tscircuit/core@0.0.1697"><style></style><defs class="copper-pour-trace-mask-defs"><mask id="copper-pour-trace-mask-top" maskUnits="userSpaceOnUse" x="0" y="0" width="800" height="600"><rect x="0" y="0" width="800" height="600" fill="#fff"/><path d="M 449.25612631578946 369.6768 L 364.2105263157895 369.6768 L 364.2105263157895 344.21050526315787 L 467.78949473684213 344.21050526315787 L 469.32968421052635 344.0588 L 470.81067368421054 343.60955789473684 L 472.1755789473684 342.88 L 473.3719157894737 341.8981894736842 L 527.3684210526316 287.9016842105263 L 527.3684210526316 291.5645052631579 L 449.25612631578946 369.6768 Z" fill-rule="evenodd" fill="#000"/><path d="M 730.5263157894738 504.2105263157895 L 364.2105263157895 504.2105263157895 L 364.2105263157895 403.2475789473684 L 368.4565052631579 403.2475789473684 L 380.7698105263158 403.2475789473684 L 459.5197052631579 403.2475789473684 L 461.9840210526316 403.00486315789476 L 464.35360000000003 402.2860631578948 L 466.53745263157896 401.11877894736847 L 468.45157894736843 399.5478736842106 L 541.999452631579 326 L 561.0526315789474 326 L 561.0526315789474 300.7368421052632 L 549.4426947368421 300.7368421052632 L 549.4207789473685 300.71492631578946 L 547.6517684210527 299.2631578947368 L 561.0526315789474 299.2631578947368 L 561.0526315789474 274 L 541.2701052631579 274 L 542.7437894736843 272.5263157894737 L 561.0526315789474 272.5263157894737 L 561.0526315789474 247.26315789473685 L 527.3684210526316 247.26315789473685 L 527.3684210526316 265.572 L 464.5193894736842 328.42103157894735 L 364.2105263157895 328.42103157894735 L 364.2105263157895 95.78947368421052 L 730.5263157894738 95.78947368421052 L 730.5263157894738 504.2105263157895 Z M 461.4736842105263 144.6315789473684 L 485.4736842105263 144.6315789473684 L 506.94736842105266 144.6315789473684 L 506.94736842105266 118.5263157894737 L 482.9473684210526 118.5263157894737 L 461.4736842105263 118.5263157894737 L 461.4736842105263 144.6315789473684 Z M 617.8947368421052 272.5263157894737 L 651.578947368421 272.5263157894737 L 651.578947368421 247.26315789473685 L 617.8947368421052 247.26315789473685 L 617.8947368421052 272.5263157894737 Z M 617.8947368421052 299.2631578947368 L 651.578947368421 299.2631578947368 L 651.578947368421 274 L 617.8947368421052 274 L 617.8947368421052 299.2631578947368 Z M 617.8947368421052 326 L 651.578947368421 326 L 651.578947368421 300.7368421052632 L 617.8947368421052 300.7368421052632 L 617.8947368421052 326 Z M 617.8947368421052 352.7368421052632 L 651.578947368421 352.7368421052632 L 651.578947368421 327.4736842105263 L 617.8947368421052 327.4736842105263 L 617.8947368421052 352.7368421052632 Z M 561.578947368421 472.1052631578948 L 597.8947368421053 472.1052631578948 L 597.8947368421053 422.63157894736844 L 561.578947368421 422.63157894736844 L 561.578947368421 472.1052631578948 Z M 623.1578947368421 472.1052631578948 L 659.4736842105262 472.1052631578948 L 659.4736842105262 422.63157894736844 L 623.1578947368421 422.63157894736844 L 623.1578947368421 472.1052631578948 Z" fill-rule="evenodd" fill="#000"/></mask><mask id="copper-pour-trace-mask-bottom" maskUnits="userSpaceOnUse" x="0" y="0" width="800" height="600"><rect x="0" y="0" width="800" height="600" fill="#fff"/><path d="M 364.2105263157895 504.2105263157895 L 364.2105263157895 95.78947368421052 L 730.5263157894738 95.78947368421052 L 730.5263157894738 504.2105263157895 L 364.2105263157895 504.2105263157895 Z" fill-rule="evenodd" fill="#000"/></mask></defs><rect class="boundary" x="0" y="0" fill="#000" width="800" height="600" data-type="pcb_background" data-pcb-layer="global"/><rect class="pcb-boundary" fill="none" stroke="#fff" stroke-width="0.3" x="21.05263157894734" y="47.36842105263156" width="757.8947368421054" height="505.2631578947369" data-type="pcb_boundary" data-pcb-layer="global"/><path class="pcb-board" d="M 21.05263157894734 552.6315789473684 L 778.9473684210527 552.6315789473684 L 778.9473684210527 47.36842105263156 L 21.05263157894734 47.36842105263156 Z" fill="none" stroke="rgba(255, 255, 255, 0.5)" stroke-width="2.105263157894737" data-type="pcb_board" data-pcb-layer="board"/><g class="pcb-trace-mask-group" mask="url(#copper-pour-trace-mask-bottom)"><path class="pcb-trace" stroke="rgb(77, 127, 196)" fill="none" stroke-width="6.315789473684211" stroke-linecap="round" stroke-linejoin="round" shape-rendering="crispEdges" data-type="pcb_trace" data-pcb-layer="bottom" d="M 290.5052631578947 259.4736842105263 L 291.7038100964339 260.67223114906545 M 291.7038100964339 260.67223114906545 L 291.7038100964339 260.697791362653 M 291.7038100964339 260.697791362653 L 316.3578947368421 285.3518760030612 M 316.3578947368421 285.3518760030612 L 316.3578947368421 397.8315789473684"/></g><path class="pcb-copper-pour pcb-copper-pour-brep" d="M 364.2105263157895 504.2105263157895 L 364.2105263157895 95.78947368421052 L 730.5263157894738 95.78947368421052 L 730.5263157894738 504.2105263157895 L 364.2105263157895 504.2105263157895 Z" fill-rule="evenodd" fill="rgb(77, 127, 196)" fill-opacity="0.5" data-type="pcb_copper_pour" data-pcb-layer="bottom"/><rect class="pcb-pad" fill="rgb(200, 52, 52)" x="86.31578947368418" y="281.57894736842104" width="21.05263157894737" height="5.2631578947368425" data-type="pcb_smtpad" data-pcb-layer="top" data-pad-name="U1.pin1" data-pad-net-name="VCC"/><rect class="pcb-pad" fill="rgb(200, 52, 52)" x="86.31578947368418" y="292.10526315789474" width="21.05263157894737" height="5.2631578947368425" data-type="pcb_smtpad" data-pcb-layer="top" data-pad-name="U1.pin2"/><rect class="pcb-pad" fill="rgb(200, 52, 52)" x="86.31578947368418" y="302.6315789473684" width="21.05263157894737" height="5.2631578947368425" data-type="pcb_smtpad" data-pcb-layer="top" data-pad-name="U1.pin3"/><rect class="pcb-pad" fill="rgb(200, 52, 52)" x="86.31578947368418" y="313.1578947368421" width="21.05263157894737" height="5.2631578947368425" data-type="pcb_smtpad" data-pcb-layer="top" data-pad-name="U1.pin4"/><rect class="pcb-pad" fill="rgb(200, 52, 52)" x="128.94736842105263" y="340" width="5.2631578947368425" height="21.05263157894737" data-type="pcb_smtpad" data-pcb-layer="top" data-pad-name="U1.pin5"/><rect class="pcb-pad" fill="rgb(200, 52, 52)" x="139.47368421052633" y="340" width="5.2631578947368425" height="21.05263157894737" data-type="pcb_smtpad" data-pcb-layer="top" data-pad-name="U1.pin6"/><rect class="pcb-pad" fill="rgb(200, 52, 52)" x="150" y="340" width="5.2631578947368425" height="21.05263157894737" data-type="pcb_smtpad" data-pcb-layer="top" data-pad-name="U1.pin7"/><rect class="pcb-pad" fill="rgb(200, 52, 52)" x="160.52631578947367" y="340" width="5.2631578947368425" height="21.05263157894737" data-type="pcb_smtpad" data-pcb-layer="top" data-pad-name="U1.pin8"/><rect class="pcb-pad" fill="rgb(200, 52, 52)" x="187.36842105263156" y="313.1578947368421" width="21.05263157894737" height="5.2631578947368425" data-type="pcb_smtpad" data-pcb-layer="top" data-pad-name="U1.pin9"/><rect class="pcb-pad" fill="rgb(200, 52, 52)" x="187.36842105263156" y="302.6315789473684" width="21.05263157894737" height="5.2631578947368425" data-type="pcb_smtpad" data-pcb-layer="top" data-pad-name="U1.pin10"/><rect class="pcb-pad" fill="rgb(200, 52, 52)" x="187.36842105263156" y="292.10526315789474" width="21.05263157894737" height="5.2631578947368425" data-type="pcb_smtpad" data-pcb-layer="top" data-pad-name="U1.pin11"/><rect class="pcb-pad" fill="rgb(200, 52, 52)" x="187.36842105263156" y="281.57894736842104" width="21.05263157894737" height="5.2631578947368425" data-type="pcb_smtpad" data-pcb-layer="top" data-pad-name="U1.pin12"/><rect class="pcb-pad" fill="rgb(200, 52, 52)" x="160.52631578947367" y="238.9473684210526" width="5.2631578947368425" height="21.05263157894737" data-type="pcb_smtpad" data-pcb-layer="top" data-pad-name="U1.pin13"/><rect class="pcb-pad" fill="rgb(200, 52, 52)" x="150" y="238.9473684210526" width="5.2631578947368425" height="21.05263157894737" data-type="pcb_smtpad" data-pcb-layer="top" data-pad-name="U1.pin14"/><rect class="pcb-pad" fill="rgb(200, 52, 52)" x="139.47368421052633" y="238.9473684210526" width="5.2631578947368425" height="21.05263157894737" data-type="pcb_smtpad" data-pcb-layer="top" data-pad-name="U1.pin15"/><rect class="pcb-pad" fill="rgb(200, 52, 52)" x="128.94736842105263" y="238.9473684210526" width="5.2631578947368425" height="21.05263157894737" data-type="pcb_smtpad" data-pcb-layer="top" data-pad-name="U1.pin16"/><rect class="pcb-pad" fill="rgb(200, 52, 52)" x="533.6842105263158" y="253.57894736842104" width="21.05263157894737" height="12.631578947368421" data-type="pcb_smtpad" data-pcb-layer="top" data-pad-name="U2.pin1"/><rect class="pcb-pad" fill="rgb(200, 52, 52)" x="533.6842105263158" y="280.3157894736842" width="21.05263157894737" height="12.631578947368421" data-type="pcb_smtpad" data-pcb-layer="top" data-pad-name="U2.pin2"/><rect class="pcb-pad" fill="rgb(200, 52, 52)" x="533.6842105263158" y="307.05263157894734" width="21.05263157894737" height="12.631578947368421" data-type="pcb_smtpad" data-pcb-layer="top" data-pad-name="U2.pin3" data-pad-net-name="VCC"/><rect class="pcb-pad" fill="rgb(200, 52, 52)" x="533.6842105263158" y="333.7894736842105" width="21.05263157894737" height="12.631578947368421" data-type="pcb_smtpad" data-pcb-layer="top" data-pad-name="U2.pin4" data-pad-net-name="GND"/><rect class="pcb-pad" fill="rgb(200, 52, 52)" x="624.2105263157895" y="333.7894736842105" width="21.05263157894737" height="12.631578947368421" data-type="pcb_smtpad" data-pcb-layer="top" data-pad-name="U2.pin5"/><rect class="pcb-pad" fill="rgb(200, 52, 52)" x="624.2105263157895" y="307.05263157894734" width="21.05263157894737" height="12.631578947368421" data-type="pcb_smtpad" data-pcb-layer="top" data-pad-name="U2.pin6"/><rect class="pcb-pad" fill="rgb(200, 52, 52)" x="624.2105263157895" y="280.3157894736842" width="21.05263157894737" height="12.631578947368421" data-type="pcb_smtpad" data-pcb-layer="top" data-pad-name="U2.pin7"/><rect class="pcb-pad" fill="rgb(200, 52, 52)" x="624.2105263157895" y="253.57894736842104" width="21.05263157894737" height="12.631578947368421" data-type="pcb_smtpad" data-pcb-layer="top" data-pad-name="U2.pin8"/><rect class="pcb-pad" fill="rgb(200, 52, 52)" x="243.68421052631578" y="158.94736842105263" width="21.57894736842105" height="29.473684210526315" data-type="pcb_smtpad" data-pcb-layer="top" data-pad-name="C1.pin1" data-pad-net-name="VCC"/><rect class="pcb-pad" fill="rgb(200, 52, 52)" x="282.10526315789474" y="158.94736842105263" width="21.57894736842105" height="29.473684210526315" data-type="pcb_smtpad" data-pcb-layer="top" data-pad-name="C1.pin2" data-pad-net-name="GND"/><rect class="pcb-pad" fill="rgb(200, 52, 52)" x="247.8947368421052" y="416.3157894736842" width="16.842105263157897" height="20" data-type="pcb_smtpad" data-pcb-layer="top" data-pad-name="C2.pin1" data-pad-net-name="VCC"/><rect class="pcb-pad" fill="rgb(200, 52, 52)" x="282.63157894736844" y="416.3157894736842" width="16.842105263157897" height="20" data-type="pcb_smtpad" data-pcb-layer="top" data-pad-name="C2.pin2" data-pad-net-name="GND"/><rect class="pcb-pad" fill="rgb(200, 52, 52)" x="467.7894736842106" y="124.84210526315788" width="11.36842105263158" height="13.473684210526317" data-type="pcb_smtpad" data-pcb-layer="top" data-pad-name="R1.pin1"/><rect class="pcb-pad" fill="rgb(200, 52, 52)" x="489.2631578947368" y="124.84210526315788" width="11.36842105263158" height="13.473684210526317" data-type="pcb_smtpad" data-pcb-layer="top" data-pad-name="R1.pin2"/><rect class="pcb-pad" fill="rgb(200, 52, 52)" x="567.8947368421052" y="428.9473684210526" width="23.68421052631579" height="36.8421052631579" data-type="pcb_smtpad" data-pcb-layer="top" data-pad-name="R2.pin1"/><rect class="pcb-pad" fill="rgb(200, 52, 52)" x="629.4736842105264" y="428.9473684210526" width="23.68421052631579" height="36.8421052631579" data-type="pcb_smtpad" data-pcb-layer="top" data-pad-name="R2.pin2"/><g class="pcb-trace-mask-group" mask="url(#copper-pour-trace-mask-top)"><path class="pcb-trace" stroke="rgb(200, 52, 52)" fill="none" stroke-width="6.315789473684211" stroke-linecap="round" stroke-linejoin="round" shape-rendering="crispEdges" data-type="pcb_trace" data-pcb-layer="top" d="M 292.89473684210526 173.68421052631578 L 290.5052631578947 176.08421052631576 M 290.5052631578947 176.08421052631576 L 290.5052631578947 259.4736842105263 M 316.3578947368421 397.8315789473684 L 314.39537889187443 399.79409479233607 M 314.39537889187443 399.79409479233607 L 291.0526315789474 423.13684210526316 M 291.0526315789474 423.13684210526316 L 291.0526315789474 426.3157894736842 M 364.2105263157895 426.3157894736842 L 291.0526315789474 426.3157894736842"/><path class="pcb-trace" stroke="rgb(200, 52, 52)" fill="none" stroke-width="12.631578947368421" stroke-linecap="round" stroke-linejoin="round" shape-rendering="crispEdges" data-type="pcb_trace" data-pcb-layer="top" d="M 254.4736842105263 173.68421052631578 L 254.4736842105263 173.9473684210526 M 254.4736842105263 173.9473684210526 L 178.9473684210526 249.4736842105263 M 178.9473684210526 249.4736842105263 L 178.9473684210526 268.42105263157896 M 178.9473684210526 268.42105263157896 L 172.63157894736838 274.7368421052632 M 172.63157894736838 274.7368421052632 L 115.78947368421052 274.7368421052632 M 115.78947368421052 274.7368421052632 L 109.4736842105263 268.42105263157896 M 109.4736842105263 268.42105263157896 L 109.4736842105263 269.39795213295173 M 109.4736842105263 269.39795213295173 L 110.56418182826098 270.48844975068636 M 110.56418182826098 270.48844975068636 L 103.7031435457094 277.34948803323795 M 256.31578947368416 426.3157894736842 L 244.25541032091618 426.3157894736842 M 244.25541032091618 426.3157894736842 L 232.19503116814818 426.3157894736842 M 232.19503116814818 426.3157894736842 L 220.1346520153802 426.3157894736842 M 220.1346520153802 426.3157894736842 L 218.02938885748546 424.2105263157895 M 218.02938885748546 424.2105263157895 L 216.8421052631579 424.2105263157895 M 216.8421052631579 424.2105263157895 L 204.21052631578948 411.57894736842104 M 204.21052631578948 411.57894736842104 L 183.15789473684208 411.57894736842104 M 183.15789473684208 411.57894736842104 L 162.1052631578947 390.5263157894737 M 162.1052631578947 390.5263157894737 L 157.89473684210526 390.5263157894737 M 157.89473684210526 390.5263157894737 L 141.05263157894734 373.68421052631584 M 141.05263157894734 373.68421052631584 L 124.21052631578948 373.68421052631584 M 124.21052631578948 373.68421052631584 L 115.78947368421052 365.2631578947369 M 115.78947368421052 365.2631578947369 L 115.78947368421052 331.5789473684211 M 115.78947368421052 331.5789473684211 L 119.99999999999994 327.3684210526316 M 119.99999999999994 327.3684210526316 L 119.99999999999994 289.4736842105263 M 119.99999999999994 289.4736842105263 L 117.89473684210526 287.36842105263156 M 117.89473684210526 287.36842105263156 L 109.4736842105263 283.1578947368421 M 109.4736842105263 283.1578947368421 L 107.36844210526311 283.1578947368421 M 107.36844210526311 283.1578947368421 L 107.36840000000001 283.1578947368421 M 256.31578947368416 426.3157894736842 L 292.01557375860733 390.6160051887611 M 292.01557375860733 390.6160051887611 L 294.57669444817657 390.6160051887611 M 294.57669444817657 390.6160051887611 L 306.8899978575683 390.6160051887611 M 343.8299080857433 390.6160051887611 L 356.14321149513495 390.6160051887611 M 356.14321149513495 390.6160051887611 L 368.4565149045266 390.6160051887611 M 368.4565149045266 390.6160051887611 L 380.7698183139183 390.6160051887611 M 380.7698183139183 390.6160051887611 L 459.5197129040121 390.6160051887611 M 459.5197129040121 390.6160051887611 L 540.4889116779656 309.64680641480766 M 540.4889116779656 309.64680641480766 L 544.2105263157895 313.36842105263156"/><path class="pcb-trace" stroke="rgb(200, 52, 52)" fill="none" stroke-width="11.05263157894737" stroke-linecap="round" stroke-linejoin="round" shape-rendering="crispEdges" data-type="pcb_trace" data-pcb-layer="top" d="M 103.7031435457094 277.34948803323795 L 99.47369909698483 281.5789324819625 M 99.47369909698483 281.5789324819625 L 99.47366932406771 281.5789622548796"/><path class="pcb-trace" stroke="rgb(200, 52, 52)" fill="none" stroke-width="5.2631578947368425" stroke-linecap="round" stroke-linejoin="round" shape-rendering="crispEdges" data-type="pcb_trace" data-pcb-layer="top" d="M 99.47366932406771 281.5789622548796 L 96.84210526315786 284.2105263157895 M 107.36840000000001 283.1578947368421 L 96.84210526315786 283.1578947368421 M 96.84210526315786 283.1578947368421 L 96.84210526315786 284.2105263157895"/><path class="pcb-trace" stroke="rgb(200, 52, 52)" fill="none" stroke-width="10.526315789473685" stroke-linecap="round" stroke-linejoin="round" shape-rendering="crispEdges" data-type="pcb_trace" data-pcb-layer="top" d="M 306.8899978575683 390.6160051887611 L 310 387.63157894736844 M 331.5166046763516 390.6160051887611 L 343.8299080857433 390.6160051887611"/><path class="pcb-trace" stroke="rgb(200, 52, 52)" fill="none" stroke-width="9.473684210526317" stroke-linecap="round" stroke-linejoin="round" shape-rendering="crispEdges" data-type="pcb_trace" data-pcb-layer="top" d="M 310 387.63157894736844 L 319.4736842105263 387.63157894736844 M 319.4736842105263 387.63157894736844 L 331.5166046763516 390.6160051887611"/><path class="pcb-trace" stroke="rgb(200, 52, 52)" fill="none" stroke-width="4.210526315789474" stroke-linecap="round" stroke-linejoin="round" shape-rendering="crispEdges" data-type="pcb_trace" data-pcb-layer="top" d="M 142.10526315789474 350.5263157894737 L 142.10526315789474 359.142364184715 M 142.10526315789474 359.142364184715 L 161.06074987607704 378.09785090289733 M 161.06074987607704 378.09785090289733 L 452.7442543602606 378.09785090289733 M 452.7442543602606 378.09785090289733 L 544.2105263157895 286.63157894736844"/><path class="pcb-trace" stroke="rgb(200, 52, 52)" fill="none" stroke-width="3.1578947368421053" stroke-linecap="round" stroke-linejoin="round" shape-rendering="crispEdges" data-type="pcb_trace" data-pcb-layer="top" d="M 131.57894736842104 350.5263157894737 L 134.9919663959301 347.11329676196465 M 134.9919663959301 347.11329676196465 L 134.9919663959301 336.3157684210526 M 134.9919663959301 336.3157684210526 L 467.78949473684213 336.3157684210526 M 467.78949473684213 336.3157684210526 L 544.2105263157895 259.89473684210526"/></g><path class="pcb-copper-pour pcb-copper-pour-brep" d="M 449.25612631578946 369.6768 L 364.2105263157895 369.6768 L 364.2105263157895 344.21050526315787 L 467.78949473684213 344.21050526315787 L 469.32968421052635 344.0588 L 470.81067368421054 343.60955789473684 L 472.1755789473684 342.88 L 473.3719157894737 341.8981894736842 L 527.3684210526316 287.9016842105263 L 527.3684210526316 291.5645052631579 L 449.25612631578946 369.6768 Z" fill-rule="evenodd" fill="rgb(200, 52, 52)" fill-opacity="0.5" data-type="pcb_copper_pour" data-pcb-layer="top"/><path class="pcb-copper-pour pcb-copper-pour-brep" d="M 730.5263157894738 504.2105263157895 L 364.2105263157895 504.2105263157895 L 364.2105263157895 403.2475789473684 L 368.4565052631579 403.2475789473684 L 380.7698105263158 403.2475789473684 L 459.5197052631579 403.2475789473684 L 461.9840210526316 403.00486315789476 L 464.35360000000003 402.2860631578948 L 466.53745263157896 401.11877894736847 L 468.45157894736843 399.5478736842106 L 541.999452631579 326 L 561.0526315789474 326 L 561.0526315789474 300.7368421052632 L 549.4426947368421 300.7368421052632 L 549.4207789473685 300.71492631578946 L 547.6517684210527 299.2631578947368 L 561.0526315789474 299.2631578947368 L 561.0526315789474 274 L 541.2701052631579 274 L 542.7437894736843 272.5263157894737 L 561.0526315789474 272.5263157894737 L 561.0526315789474 247.26315789473685 L 527.3684210526316 247.26315789473685 L 527.3684210526316 265.572 L 464.5193894736842 328.42103157894735 L 364.2105263157895 328.42103157894735 L 364.2105263157895 95.78947368421052 L 730.5263157894738 95.78947368421052 L 730.5263157894738 504.2105263157895 Z M 461.4736842105263 144.6315789473684 L 485.4736842105263 144.6315789473684 L 506.94736842105266 144.6315789473684 L 506.94736842105266 118.5263157894737 L 482.9473684210526 118.5263157894737 L 461.4736842105263 118.5263157894737 L 461.4736842105263 144.6315789473684 Z M 617.8947368421052 272.5263157894737 L 651.578947368421 272.5263157894737 L 651.578947368421 247.26315789473685 L 617.8947368421052 247.26315789473685 L 617.8947368421052 272.5263157894737 Z M 617.8947368421052 299.2631578947368 L 651.578947368421 299.2631578947368 L 651.578947368421 274 L 617.8947368421052 274 L 617.8947368421052 299.2631578947368 Z M 617.8947368421052 326 L 651.578947368421 326 L 651.578947368421 300.7368421052632 L 617.8947368421052 300.7368421052632 L 617.8947368421052 326 Z M 617.8947368421052 352.7368421052632 L 651.578947368421 352.7368421052632 L 651.578947368421 327.4736842105263 L 617.8947368421052 327.4736842105263 L 617.8947368421052 352.7368421052632 Z M 561.578947368421 472.1052631578948 L 597.8947368421053 472.1052631578948 L 597.8947368421053 422.63157894736844 L 561.578947368421 422.63157894736844 L 561.578947368421 472.1052631578948 Z M 623.1578947368421 472.1052631578948 L 659.4736842105262 472.1052631578948 L 659.4736842105262 422.63157894736844 L 623.1578947368421 422.63157894736844 L 623.1578947368421 472.1052631578948 Z" fill-rule="evenodd" fill="rgb(200, 52, 52)" fill-opacity="0.5" data-type="pcb_copper_pour" data-pcb-layer="top"/><path class="pcb-silkscreen pcb-silkscreen-top" d="M 115.78947368421052 257.89473684210526 L 105.26315789473682 257.89473684210526 L 105.26315789473682 268.42105263157896" fill="none" stroke="#f2eda1" stroke-width="2.105263157894737" stroke-linecap="round" stroke-linejoin="round" data-pcb-component-id="pcb_component_0" data-pcb-silkscreen-path-id="pcb_silkscreen_path_0" data-type="pcb_silkscreen_path" data-pcb-layer="top"/><path class="pcb-silkscreen pcb-silkscreen-top" d="M 90.5263157894737 256.3157894736842 L 94.73684210526312 260.5263157894737 L 98.9473684210526 256.3157894736842 L 90.5263157894737 256.3157894736842 Z" fill="none" stroke="#f2eda1" stroke-width="2.105263157894737" stroke-linecap="round" stroke-linejoin="round" data-pcb-component-id="pcb_component_0" data-pcb-silkscreen-path-id="pcb_silkscreen_path_1" data-type="pcb_silkscreen_path" data-pcb-layer="top"/><path class="pcb-silkscreen pcb-silkscreen-top" d="M 115.78947368421052 342.10526315789474 L 105.26315789473682 342.10526315789474 L 105.26315789473682 331.57894736842104" fill="none" stroke="#f2eda1" stroke-width="2.105263157894737" stroke-linecap="round" stroke-linejoin="round" data-pcb-component-id="pcb_component_0" data-pcb-silkscreen-path-id="pcb_silkscreen_path_2" data-type="pcb_silkscreen_path" data-pcb-layer="top"/><path class="pcb-silkscreen pcb-silkscreen-top" d="M 178.9473684210526 342.10526315789474 L 189.4736842105263 342.10526315789474 L 189.4736842105263 331.57894736842104" fill="none" stroke="#f2eda1" stroke-width="2.105263157894737" stroke-linecap="round" stroke-linejoin="round" data-pcb-component-id="pcb_component_0" data-pcb-silkscreen-path-id="pcb_silkscreen_path_3" data-type="pcb_silkscreen_path" data-pcb-layer="top"/><path class="pcb-silkscreen pcb-silkscreen-top" d="M 178.9473684210526 257.89473684210526 L 189.4736842105263 257.89473684210526 L 189.4736842105263 268.42105263157896" fill="none" stroke="#f2eda1" stroke-width="2.105263157894737" stroke-linecap="round" stroke-linejoin="round" data-pcb-component-id="pcb_component_0" data-pcb-silkscreen-path-id="pcb_silkscreen_path_4" data-type="pcb_silkscreen_path" data-pcb-layer="top"/><text x="0" y="0" dx="0" dy="0" fill="#f2eda1" font-family="Arial, sans-serif" font-size="10.526315789473685" text-anchor="middle" dominant-baseline="central" transform="matrix(1,0,0,1,147.36842105263156,232.6315789473684)" class="pcb-silkscreen-text pcb-silkscreen-top" data-pcb-silkscreen-text-id="pcb_silkscreen_text_0" stroke="none" data-type="pcb_silkscreen_text" data-pcb-layer="top">U1</text><path class="pcb-silkscreen pcb-silkscreen-top" d="M 556.8421052631579 353.10526315789474 L 556.8421052631579 246.89473684210526 L 578.5964912280702 246.89473684210526 L 579.4244682428597 251.05725838712905 L 581.7823472923569 254.58607376027473 L 585.3111626655026 256.9439528097719 L 589.4736842105264 257.7719298245614 L 593.6362057555501 256.9439528097719 L 597.1650211286958 254.58607376027473 L 599.5229001781929 251.05725838712905 L 600.3508771929825 246.89473684210526 L 622.1052631578948 246.89473684210526 L 622.1052631578948 353.10526315789474 L 556.8421052631579 353.10526315789474 Z" fill="none" stroke="#f2eda1" stroke-width="2.105263157894737" stroke-linecap="round" stroke-linejoin="round" data-pcb-component-id="pcb_component_1" data-pcb-silkscreen-path-id="pcb_silkscreen_path_5" data-type="pcb_silkscreen_path" data-pcb-layer="top"/><text x="0" y="0" dx="0" dy="0" fill="#f2eda1" font-family="Arial, sans-serif" font-size="13.06140350877193" text-anchor="middle" dominant-baseline="central" transform="matrix(1,0,0,1,589.4736842105264,238.4736842105263)" class="pcb-silkscreen-text pcb-silkscreen-top" data-pcb-silkscreen-text-id="pcb_silkscreen_text_1" stroke="none" data-type="pcb_silkscreen_text" data-pcb-layer="top">U2</text><path class="pcb-silkscreen pcb-silkscreen-top" d="M 292.89473684210526 150.52631578947367 L 239.4736842105263 150.52631578947367 L 239.4736842105263 196.84210526315786 L 292.89473684210526 196.84210526315786" fill="none" stroke="#f2eda1" stroke-width="2.105263157894737" stroke-linecap="round" stroke-linejoin="round" data-pcb-component-id="pcb_component_2" data-pcb-silkscreen-path-id="pcb_silkscreen_path_6" data-type="pcb_silkscreen_path" data-pcb-layer="top"/><text x="0" y="0" dx="0" dy="0" fill="#f2eda1" font-family="Arial, sans-serif" font-size="8.421052631578949" text-anchor="middle" dominant-baseline="central" transform="matrix(1,0,0,1,273.6842105263158,140)" class="pcb-silkscreen-text pcb-silkscreen-top" data-pcb-silkscreen-text-id="pcb_silkscreen_text_2" stroke="none" data-type="pcb_silkscreen_text" data-pcb-layer="top">C1</text><path class="pcb-silkscreen pcb-silkscreen-top" d="M 291.0526315789474 407.89473684210526 L 243.68421052631578 407.89473684210526 L 243.68421052631578 444.7368421052632 L 291.0526315789474 444.7368421052632" fill="none" stroke="#f2eda1" stroke-width="2.105263157894737" stroke-linecap="round" stroke-linejoin="round" data-pcb-component-id="pcb_component_3" data-pcb-silkscreen-path-id="pcb_silkscreen_path_7" data-type="pcb_silkscreen_path" data-pcb-layer="top"/><text x="0" y="0" dx="0" dy="0" fill="#f2eda1" font-family="Arial, sans-serif" font-size="8.421052631578949" text-anchor="middle" dominant-baseline="central" transform="matrix(1,0,0,1,273.6842105263158,397.36842105263156)" class="pcb-silkscreen-text pcb-silkscreen-top" data-pcb-silkscreen-text-id="pcb_silkscreen_text_3" stroke="none" data-type="pcb_silkscreen_text" data-pcb-layer="top">C2</text><path class="pcb-silkscreen pcb-silkscreen-top" d="M 480.97597894736845 123.57894736842101 L 487.44507368421057 123.57894736842101" fill="none" stroke="#f2eda1" stroke-width="2.5263157894736845" stroke-linecap="round" stroke-linejoin="round" data-pcb-component-id="pcb_component_4" data-pcb-silkscreen-path-id="pcb_silkscreen_path_8" data-type="pcb_silkscreen_path" data-pcb-layer="top"/><path class="pcb-silkscreen pcb-silkscreen-top" d="M 480.97597894736845 139.57894736842104 L 487.44507368421057 139.57894736842104" fill="none" stroke="#f2eda1" stroke-width="2.5263157894736845" stroke-linecap="round" stroke-linejoin="round" data-pcb-component-id="pcb_component_4" data-pcb-silkscreen-path-id="pcb_silkscreen_path_9" data-type="pcb_silkscreen_path" data-pcb-layer="top"/><text x="0" y="0" dx="0" dy="0" fill="#f2eda1" font-family="Arial, sans-serif" font-size="8.421052631578949" text-anchor="middle" dominant-baseline="central" transform="matrix(1,0,0,1,484.2105263157895,105.89473684210523)" class="pcb-silkscreen-text pcb-silkscreen-top" data-pcb-silkscreen-text-id="pcb_silkscreen_text_4" stroke="none" data-type="pcb_silkscreen_text" data-pcb-layer="top">R1</text><path class="pcb-silkscreen pcb-silkscreen-top" d="M 595.219705263158 428.2105263157895 L 625.8329263157896 428.2105263157895" fill="none" stroke="#f2eda1" stroke-width="2.5263157894736845" stroke-linecap="round" stroke-linejoin="round" data-pcb-component-id="pcb_component_5" data-pcb-silkscreen-path-id="pcb_silkscreen_path_10" data-type="pcb_silkscreen_path" data-pcb-layer="top"/><path class="pcb-silkscreen pcb-silkscreen-top" d="M 595.219705263158 466.5263157894737 L 625.8329263157896 466.5263157894737" fill="none" stroke="#f2eda1" stroke-width="2.5263157894736845" stroke-linecap="round" stroke-linejoin="round" data-pcb-component-id="pcb_component_5" data-pcb-silkscreen-path-id="pcb_silkscreen_path_11" data-type="pcb_silkscreen_path" data-pcb-layer="top"/><text x="0" y="0" dx="0" dy="0" fill="#f2eda1" font-family="Arial, sans-serif" font-size="8.421052631578949" text-anchor="middle" dominant-baseline="central" transform="matrix(1,0,0,1,610.5263157894738,410)" class="pcb-silkscreen-text pcb-silkscreen-top" data-pcb-silkscreen-text-id="pcb_silkscreen_text_5" stroke="none" data-type="pcb_silkscreen_text" data-pcb-layer="top">R2</text><g data-type="pcb_via" data-pcb-layer="through"><circle class="pcb-hole-outer" fill="rgb(200, 52, 52)" cx="290.5052631578947" cy="259.4736842105263" r="3.1578947368421053" data-type="pcb_via" data-pcb-layer="top"/><circle class="pcb-hole-inner" fill="#FF26E2" cx="290.5052631578947" cy="259.4736842105263" r="2.105263157894737" data-type="pcb_via" data-pcb-layer="drill"/></g><g data-type="pcb_via" data-pcb-layer="through"><circle class="pcb-hole-outer" fill="rgb(200, 52, 52)" cx="316.3578947368421" cy="397.8315789473684" r="3.1578947368421053" data-type="pcb_via" data-pcb-layer="top"/><circle class="pcb-hole-inner" fill="#FF26E2" cx="316.3578947368421" cy="397.8315789473684" r="2.105263157894737" data-type="pcb_via" data-pcb-layer="drill"/></g><g data-type="pcb_via" data-pcb-layer="through"><circle class="pcb-hole-outer" fill="rgb(200, 52, 52)" cx="416.8421052631579" cy="451.57894736842104" r="6.315789473684211" data-type="pcb_via" data-pcb-layer="top"/><circle class="pcb-hole-inner" fill="#FF26E2" cx="416.8421052631579" cy="451.57894736842104" r="3.1578947368421053" data-type="pcb_via" data-pcb-layer="drill"/></g><g data-type="pcb_via" data-pcb-layer="through"><circle class="pcb-hole-outer" fill="rgb(200, 52, 52)" cx="467.36842105263156" cy="451.57894736842104" r="6.315789473684211" data-type="pcb_via" data-pcb-layer="top"/><circle class="pcb-hole-inner" fill="#FF26E2" cx="467.36842105263156" cy="451.57894736842104" r="3.1578947368421053" data-type="pcb_via" data-pcb-layer="drill"/></g><g data-type="pcb_via" data-pcb-layer="through"><circle class="pcb-hole-outer" fill="rgb(200, 52, 52)" cx="517.8947368421052" cy="451.57894736842104" r="6.315789473684211" data-type="pcb_via" data-pcb-layer="top"/><circle class="pcb-hole-inner" fill="#FF26E2" cx="517.8947368421052" cy="451.57894736842104" r="3.1578947368421053" data-type="pcb_via" data-pcb-layer="drill"/></g><g data-type="pcb_via" data-pcb-layer="through"><circle class="pcb-hole-outer" fill="rgb(200, 52, 52)" cx="669.4736842105264" cy="451.57894736842104" r="6.315789473684211" data-type="pcb_via" data-pcb-layer="top"/><circle class="pcb-hole-inner" fill="#FF26E2" cx="669.4736842105264" cy="451.57894736842104" r="3.1578947368421053" data-type="pcb_via" data-pcb-layer="drill"/></g><g data-type="pcb_via" data-pcb-layer="through"><circle class="pcb-hole-outer" fill="rgb(200, 52, 52)" cx="720" cy="451.57894736842104" r="6.315789473684211" data-type="pcb_via" data-pcb-layer="top"/><circle class="pcb-hole-inner" fill="#FF26E2" cx="720" cy="451.57894736842104" r="3.1578947368421053" data-type="pcb_via" data-pcb-layer="drill"/></g><g data-type="pcb_via" data-pcb-layer="through"><circle class="pcb-hole-outer" fill="rgb(200, 52, 52)" cx="517.8947368421052" cy="401.0526315789474" r="6.315789473684211" data-type="pcb_via" data-pcb-layer="top"/><circle class="pcb-hole-inner" fill="#FF26E2" cx="517.8947368421052" cy="401.0526315789474" r="3.1578947368421053" data-type="pcb_via" data-pcb-layer="drill"/></g><g data-type="pcb_via" data-pcb-layer="through"><circle class="pcb-hole-outer" fill="rgb(200, 52, 52)" cx="568.421052631579" cy="401.0526315789474" r="6.315789473684211" data-type="pcb_via" data-pcb-layer="top"/><circle class="pcb-hole-inner" fill="#FF26E2" cx="568.421052631579" cy="401.0526315789474" r="3.1578947368421053" data-type="pcb_via" data-pcb-layer="drill"/></g><g data-type="pcb_via" data-pcb-layer="through"><circle class="pcb-hole-outer" fill="rgb(200, 52, 52)" cx="618.9473684210527" cy="401.0526315789474" r="6.315789473684211" data-type="pcb_via" data-pcb-layer="top"/><circle class="pcb-hole-inner" fill="#FF26E2" cx="618.9473684210527" cy="401.0526315789474" r="3.1578947368421053" data-type="pcb_via" data-pcb-layer="drill"/></g><g data-type="pcb_via" data-pcb-layer="through"><circle class="pcb-hole-outer" fill="rgb(200, 52, 52)" cx="669.4736842105264" cy="401.0526315789474" r="6.315789473684211" data-type="pcb_via" data-pcb-layer="top"/><circle class="pcb-hole-inner" fill="#FF26E2" cx="669.4736842105264" cy="401.0526315789474" r="3.1578947368421053" data-type="pcb_via" data-pcb-layer="drill"/></g><g data-type="pcb_via" data-pcb-layer="through"><circle class="pcb-hole-outer" fill="rgb(200, 52, 52)" cx="720" cy="401.0526315789474" r="6.315789473684211" data-type="pcb_via" data-pcb-layer="top"/><circle class="pcb-hole-inner" fill="#FF26E2" cx="720" cy="401.0526315789474" r="3.1578947368421053" data-type="pcb_via" data-pcb-layer="drill"/></g><g data-type="pcb_via" data-pcb-layer="through"><circle class="pcb-hole-outer" fill="rgb(200, 52, 52)" cx="669.4736842105264" cy="350.5263157894737" r="6.315789473684211" data-type="pcb_via" data-pcb-layer="top"/><circle class="pcb-hole-inner" fill="#FF26E2" cx="669.4736842105264" cy="350.5263157894737" r="3.1578947368421053" data-type="pcb_via" data-pcb-layer="drill"/></g><g data-type="pcb_via" data-pcb-layer="through"><circle class="pcb-hole-outer" fill="rgb(200, 52, 52)" cx="720" cy="350.5263157894737" r="6.315789473684211" data-type="pcb_via" data-pcb-layer="top"/><circle class="pcb-hole-inner" fill="#FF26E2" cx="720" cy="350.5263157894737" r="3.1578947368421053" data-type="pcb_via" data-pcb-layer="drill"/></g><g data-type="pcb_via" data-pcb-layer="through"><circle class="pcb-hole-outer" fill="rgb(200, 52, 52)" cx="416.8421052631579" cy="300" r="6.315789473684211" data-type="pcb_via" data-pcb-layer="top"/><circle class="pcb-hole-inner" fill="#FF26E2" cx="416.8421052631579" cy="300" r="3.1578947368421053" data-type="pcb_via" data-pcb-layer="drill"/></g><g data-type="pcb_via" data-pcb-layer="through"><circle class="pcb-hole-outer" fill="rgb(200, 52, 52)" cx="467.36842105263156" cy="300" r="6.315789473684211" data-type="pcb_via" data-pcb-layer="top"/><circle class="pcb-hole-inner" fill="#FF26E2" cx="467.36842105263156" cy="300" r="3.1578947368421053" data-type="pcb_via" data-pcb-layer="drill"/></g><g data-type="pcb_via" data-pcb-layer="through"><circle class="pcb-hole-outer" fill="rgb(200, 52, 52)" cx="669.4736842105264" cy="300" r="6.315789473684211" data-type="pcb_via" data-pcb-layer="top"/><circle class="pcb-hole-inner" fill="#FF26E2" cx="669.4736842105264" cy="300" r="3.1578947368421053" data-type="pcb_via" data-pcb-layer="drill"/></g><g data-type="pcb_via" data-pcb-layer="through"><circle class="pcb-hole-outer" fill="rgb(200, 52, 52)" cx="720" cy="300" r="6.315789473684211" data-type="pcb_via" data-pcb-layer="top"/><circle class="pcb-hole-inner" fill="#FF26E2" cx="720" cy="300" r="3.1578947368421053" data-type="pcb_via" data-pcb-layer="drill"/></g><g data-type="pcb_via" data-pcb-layer="through"><circle class="pcb-hole-outer" fill="rgb(200, 52, 52)" cx="416.8421052631579" cy="249.4736842105263" r="6.315789473684211" data-type="pcb_via" data-pcb-layer="top"/><circle class="pcb-hole-inner" fill="#FF26E2" cx="416.8421052631579" cy="249.4736842105263" r="3.1578947368421053" data-type="pcb_via" data-pcb-layer="drill"/></g><g data-type="pcb_via" data-pcb-layer="through"><circle class="pcb-hole-outer" fill="rgb(200, 52, 52)" cx="467.36842105263156" cy="249.4736842105263" r="6.315789473684211" data-type="pcb_via" data-pcb-layer="top"/><circle class="pcb-hole-inner" fill="#FF26E2" cx="467.36842105263156" cy="249.4736842105263" r="3.1578947368421053" data-type="pcb_via" data-pcb-layer="drill"/></g><g data-type="pcb_via" data-pcb-layer="through"><circle class="pcb-hole-outer" fill="rgb(200, 52, 52)" cx="517.8947368421052" cy="249.4736842105263" r="6.315789473684211" data-type="pcb_via" data-pcb-layer="top"/><circle class="pcb-hole-inner" fill="#FF26E2" cx="517.8947368421052" cy="249.4736842105263" r="3.1578947368421053" data-type="pcb_via" data-pcb-layer="drill"/></g><g data-type="pcb_via" data-pcb-layer="through"><circle class="pcb-hole-outer" fill="rgb(200, 52, 52)" cx="669.4736842105264" cy="249.4736842105263" r="6.315789473684211" data-type="pcb_via" data-pcb-layer="top"/><circle class="pcb-hole-inner" fill="#FF26E2" cx="669.4736842105264" cy="249.4736842105263" r="3.1578947368421053" data-type="pcb_via" data-pcb-layer="drill"/></g><g data-type="pcb_via" data-pcb-layer="through"><circle class="pcb-hole-outer" fill="rgb(200, 52, 52)" cx="720" cy="249.4736842105263" r="6.315789473684211" data-type="pcb_via" data-pcb-layer="top"/><circle class="pcb-hole-inner" fill="#FF26E2" cx="720" cy="249.4736842105263" r="3.1578947368421053" data-type="pcb_via" data-pcb-layer="drill"/></g><g data-type="pcb_via" data-pcb-layer="through"><circle class="pcb-hole-outer" fill="rgb(200, 52, 52)" cx="416.8421052631579" cy="198.94736842105263" r="6.315789473684211" data-type="pcb_via" data-pcb-layer="top"/><circle class="pcb-hole-inner" fill="#FF26E2" cx="416.8421052631579" cy="198.94736842105263" r="3.1578947368421053" data-type="pcb_via" data-pcb-layer="drill"/></g><g data-type="pcb_via" data-pcb-layer="through"><circle class="pcb-hole-outer" fill="rgb(200, 52, 52)" cx="467.36842105263156" cy="198.94736842105263" r="6.315789473684211" data-type="pcb_via" data-pcb-layer="top"/><circle class="pcb-hole-inner" fill="#FF26E2" cx="467.36842105263156" cy="198.94736842105263" r="3.1578947368421053" data-type="pcb_via" data-pcb-layer="drill"/></g><g data-type="pcb_via" data-pcb-layer="through"><circle class="pcb-hole-outer" fill="rgb(200, 52, 52)" cx="517.8947368421052" cy="198.94736842105263" r="6.315789473684211" data-type="pcb_via" data-pcb-layer="top"/><circle class="pcb-hole-inner" fill="#FF26E2" cx="517.8947368421052" cy="198.94736842105263" r="3.1578947368421053" data-type="pcb_via" data-pcb-layer="drill"/></g><g data-type="pcb_via" data-pcb-layer="through"><circle class="pcb-hole-outer" fill="rgb(200, 52, 52)" cx="568.421052631579" cy="198.94736842105263" r="6.315789473684211" data-type="pcb_via" data-pcb-layer="top"/><circle class="pcb-hole-inner" fill="#FF26E2" cx="568.421052631579" cy="198.94736842105263" r="3.1578947368421053" data-type="pcb_via" data-pcb-layer="drill"/></g><g data-type="pcb_via" data-pcb-layer="through"><circle class="pcb-hole-outer" fill="rgb(200, 52, 52)" cx="618.9473684210527" cy="198.94736842105263" r="6.315789473684211" data-type="pcb_via" data-pcb-layer="top"/><circle class="pcb-hole-inner" fill="#FF26E2" cx="618.9473684210527" cy="198.94736842105263" r="3.1578947368421053" data-type="pcb_via" data-pcb-layer="drill"/></g><g data-type="pcb_via" data-pcb-layer="through"><circle class="pcb-hole-outer" fill="rgb(200, 52, 52)" cx="669.4736842105264" cy="198.94736842105263" r="6.315789473684211" data-type="pcb_via" data-pcb-layer="top"/><circle class="pcb-hole-inner" fill="#FF26E2" cx="669.4736842105264" cy="198.94736842105263" r="3.1578947368421053" data-type="pcb_via" data-pcb-layer="drill"/></g><g data-type="pcb_via" data-pcb-layer="through"><circle class="pcb-hole-outer" fill="rgb(200, 52, 52)" cx="720" cy="198.94736842105263" r="6.315789473684211" data-type="pcb_via" data-pcb-layer="top"/><circle class="pcb-hole-inner" fill="#FF26E2" cx="720" cy="198.94736842105263" r="3.1578947368421053" data-type="pcb_via" data-pcb-layer="drill"/></g><g data-type="pcb_via" data-pcb-layer="through"><circle class="pcb-hole-outer" fill="rgb(200, 52, 52)" cx="416.8421052631579" cy="148.42105263157896" r="6.315789473684211" data-type="pcb_via" data-pcb-layer="top"/><circle class="pcb-hole-inner" fill="#FF26E2" cx="416.8421052631579" cy="148.42105263157896" r="3.1578947368421053" data-type="pcb_via" data-pcb-layer="drill"/></g><g data-type="pcb_via" data-pcb-layer="through"><circle class="pcb-hole-outer" fill="rgb(200, 52, 52)" cx="517.8947368421052" cy="148.42105263157896" r="6.315789473684211" data-type="pcb_via" data-pcb-layer="top"/><circle class="pcb-hole-inner" fill="#FF26E2" cx="517.8947368421052" cy="148.42105263157896" r="3.1578947368421053" data-type="pcb_via" data-pcb-layer="drill"/></g><g data-type="pcb_via" data-pcb-layer="through"><circle class="pcb-hole-outer" fill="rgb(200, 52, 52)" cx="568.421052631579" cy="148.42105263157896" r="6.315789473684211" data-type="pcb_via" data-pcb-layer="top"/><circle class="pcb-hole-inner" fill="#FF26E2" cx="568.421052631579" cy="148.42105263157896" r="3.1578947368421053" data-type="pcb_via" data-pcb-layer="drill"/></g><g data-type="pcb_via" data-pcb-layer="through"><circle class="pcb-hole-outer" fill="rgb(200, 52, 52)" cx="618.9473684210527" cy="148.42105263157896" r="6.315789473684211" data-type="pcb_via" data-pcb-layer="top"/><circle class="pcb-hole-inner" fill="#FF26E2" cx="618.9473684210527" cy="148.42105263157896" r="3.1578947368421053" data-type="pcb_via" data-pcb-layer="drill"/></g><g data-type="pcb_via" data-pcb-layer="through"><circle class="pcb-hole-outer" fill="rgb(200, 52, 52)" cx="669.4736842105264" cy="148.42105263157896" r="6.315789473684211" data-type="pcb_via" data-pcb-layer="top"/><circle class="pcb-hole-inner" fill="#FF26E2" cx="669.4736842105264" cy="148.42105263157896" r="3.1578947368421053" data-type="pcb_via" data-pcb-layer="drill"/></g><g data-type="pcb_via" data-pcb-layer="through"><circle class="pcb-hole-outer" fill="rgb(200, 52, 52)" cx="720" cy="148.42105263157896" r="6.315789473684211" data-type="pcb_via" data-pcb-layer="top"/><circle class="pcb-hole-inner" fill="#FF26E2" cx="720" cy="148.42105263157896" r="3.1578947368421053" data-type="pcb_via" data-pcb-layer="drill"/></g><g data-type="pcb_via" data-pcb-layer="through"><circle class="pcb-hole-outer" fill="rgb(200, 52, 52)" cx="374.5263157894737" cy="426.3157894736842" r="6.315789473684211" data-type="pcb_via" data-pcb-layer="top"/><circle class="pcb-hole-inner" fill="#FF26E2" cx="374.5263157894737" cy="426.3157894736842" r="3.1578947368421053" data-type="pcb_via" data-pcb-layer="drill"/></g><text x="400" y="68.42105263157893" fill="rgb(89, 148, 220)" font-family="Arial, sans-serif" font-size="10.105263157894738" text-anchor="middle" dominant-baseline="central" class="pcb-note-text" data-type="pcb_note_text" data-pcb-note-text-id="pcb_note_text_0" data-pcb-layer="overlay">Signal and power traces cross a stitched top/bottom GND pour</text></svg>